    <svg
      style="height: 2.5rem; width: 2.5rem"
      viewBox="0 0 23 21"
      fill="none"
      xmlns="http://www.w3.org/2000/svg"
    >
      <g id="guy-multiple">
        <circle
          id="body"
          cx="14.7037"
          cy="12"
          r="7.5"
          stroke="#6366f1"
        ></circle>
        <path
          id="foot--right"
          d="M20.2037 20C20.2037 20.0005 20.2037 20.0013 20.2034 20.0027C20.2031 20.0042 20.2023 20.0073 20.2003 20.0122C20.1963 20.022 20.1866 20.0405 20.1648 20.0663C20.1192 20.1202 20.0336 20.1902 19.8943 20.2599C19.6154 20.3993 19.1952 20.5 18.7037 20.5C18.2122 20.5 17.792 20.3993 17.5131 20.2599C17.3738 20.1902 17.2882 20.1202 17.2426 20.0663C17.2208 20.0405 17.2111 20.022 17.2071 20.0122C17.2051 20.0073 17.2043 20.0042 17.204 20.0027C17.2037 20.0013 17.2037 20.0005 17.2037 20C17.2037 19.9995 17.2037 19.9987 17.204 19.9973C17.2043 19.9958 17.2051 19.9927 17.2071 19.9878C17.2111 19.978 17.2208 19.9595 17.2426 19.9337C17.2882 19.8798 17.3738 19.8098 17.5131 19.7401C17.792 19.6007 18.2122 19.5 18.7037 19.5C19.1952 19.5 19.6154 19.6007 19.8943 19.7401C20.0336 19.8098 20.1192 19.8798 20.1648 19.9337C20.1866 19.9595 20.1963 19.978 20.2003 19.9878C20.2023 19.9927 20.2031 19.9958 20.2034 19.9973C20.2037 19.9987 20.2037 19.9995 20.2037 20Z"
          stroke="#6366f1"
        ></path>
        <path
          id="foot--left"
          d="M12.2037 20C12.2037 20.0005 12.2037 20.0013 12.2034 20.0027C12.2031 20.0042 12.2023 20.0073 12.2003 20.0122C12.1963 20.022 12.1866 20.0405 12.1648 20.0663C12.1192 20.1202 12.0336 20.1902 11.8943 20.2599C11.6154 20.3993 11.1952 20.5 10.7037 20.5C10.2122 20.5 9.79197 20.3993 9.5131 20.2599C9.3738 20.1902 9.28821 20.1202 9.24261 20.0663C9.22079 20.0405 9.21112 20.022 9.20708 20.0122C9.20509 20.0073 9.20433 20.0042 9.20403 20.0027C9.20374 20.0013 9.2037 20.0005 9.2037 20C9.2037 19.9995 9.20374 19.9987 9.20403 19.9973C9.20433 19.9958 9.20509 19.9927 9.20708 19.9878C9.21112 19.978 9.22079 19.9595 9.24261 19.9337C9.28821 19.8798 9.3738 19.8098 9.5131 19.7401C9.79197 19.6007 10.2122 19.5 10.7037 19.5C11.1952 19.5 11.6154 19.6007 11.8943 19.7401C12.0336 19.8098 12.1192 19.8798 12.1648 19.9337C12.1866 19.9595 12.1963 19.978 12.2003 19.9878C12.2023 19.9927 12.2031 19.9958 12.2034 19.9973C12.2037 19.9987 12.2037 19.9995 12.2037 20Z"
          stroke="#6366f1"
        ></path>
        <circle
          id="eye--right"
          cx="17.7037"
          cy="9"
          r="1"
          fill="#6366f1"
        ></circle>
        <circle
          id="eye--left"
          cx="11.7037"
          cy="9"
          r="1"
          fill="#6366f1"
        ></circle>
      </g>
    </svg>